<svg xmlns="http://www.w3.org/2000/svg" viewBox="0 0 212.29 56.59"><defs><style>.cls-1{fill:#fdbe28;}.cls-2{fill:#080c40;}</style></defs><g id="Capa_2" data-name="Capa 2"><g id="home"><path class="cls-1" d="M6.31,0A6.31,6.31,0,1,1,0,6.31,6.31,6.31,0,0,1,6.31,0"/><path class="cls-2" d="M.75,33V22.7c0-3.59,2.35-5.83,5.56-5.83s5.56,2.26,5.56,5.83V32.86c0,8.86,5.17,13.77,12.43,13.77s12.52-4.91,12.52-13.77V8.33c0-3.59,2.35-5.85,5.56-5.85s5.56,2.26,5.56,5.85V33c0,14.9-10.08,23.55-23.64,23.55S.75,47.91.75,33"/><path class="cls-2" d="M54.87,3.08a3.17,3.17,0,0,1,2.32.9,2.92,2.92,0,0,1,.92,2.19,2.92,2.92,0,0,1-.92,2.19,3.45,3.45,0,0,1-4.64,0,3,3,0,0,1-.92-2.2A3,3,0,0,1,52.55,4,3.18,3.18,0,0,1,54.87,3.08ZM53.06,7.87a2.41,2.41,0,0,0,1.81.7,2.47,2.47,0,0,0,1.82-.69,2.35,2.35,0,0,0,.68-1.71,2.35,2.35,0,0,0-.68-1.71,2.73,2.73,0,0,0-3.63,0,2.32,2.32,0,0,0-.69,1.71A2.3,2.3,0,0,0,53.06,7.87ZM56.4,5.65a1,1,0,0,1-.66,1l.67.85c.05.07.06.12,0,.17a.16.16,0,0,1-.15.07h-.51a.25.25,0,0,1-.23-.11l-.66-.87h-.47v.79a.17.17,0,0,1-.19.19H53.8a.17.17,0,0,1-.19-.19V4.7a.17.17,0,0,1,.19-.19H55a1.42,1.42,0,0,1,1,.31A1.05,1.05,0,0,1,56.4,5.65Zm-2-.43V6.1H55c.38,0,.58-.15.58-.44s-.2-.44-.58-.44Z"/><path class="cls-1" d="M163.64,34.46a7.12,7.12,0,1,0-7.12-7.12,7.12,7.12,0,0,0,7.12,7.12"/><path class="cls-2" d="M209.53,48.21l-7.15-15.79c4.26-2.54,6.4-6.85,6.4-12.12,0-8.44-5.46-14.53-16.43-14.53h-17.8a.6.6,0,0,0-.63.64v2a21.57,21.57,0,0,1,0,37.93v2a.59.59,0,0,0,.63.63H186.4a.59.59,0,0,0,.62-.63V35.21a.34.34,0,0,1,.38-.38h2.19l5.46,13.45a.83.83,0,0,0,.94.63h13.1a.47.47,0,0,0,.44-.7M195.61,20.49c0,2.29-1.44,3.68-4.26,3.68H187.4a.34.34,0,0,1-.38-.38v-6.6a.34.34,0,0,1,.38-.38h3.95c2.82,0,4.26,1.4,4.26,3.68"/><path class="cls-2" d="M79,48.28a.59.59,0,0,0,.63.63H91.56a.59.59,0,0,0,.62-.63V39.2l3.33-4.75,6.58,13.83a1,1,0,0,0,1.07.63h13.66a.43.43,0,0,0,.38-.7L104.41,23.6,117,6.59c.25-.38.12-.82-.44-.82H103.22a1.2,1.2,0,0,0-1.13.63L92.18,20.87V6.41a.59.59,0,0,0-.62-.64H79.65a.6.6,0,0,0-.63.64Z"/><path class="cls-2" d="M153.2,8.47a21.56,21.56,0,0,0,0,37.74v2.07a.59.59,0,0,1-.63.63H140.66a.59.59,0,0,1-.62-.63v-15a.34.34,0,0,0-.38-.38h-8.84a.34.34,0,0,0-.38.38v15a.59.59,0,0,1-.62.63H117.91a.59.59,0,0,1-.63-.63V6.41a.6.6,0,0,1,.63-.64h11.91a.6.6,0,0,1,.62.64V20.68a.34.34,0,0,0,.38.38h8.84a.34.34,0,0,0,.38-.38V6.41a.6.6,0,0,1,.62-.64h11.91a.6.6,0,0,1,.63.64Z"/><path class="cls-2" d="M207.09,6.15a2.6,2.6,0,0,1,5.2,0,2.6,2.6,0,1,1-5.2,0m4.74,0a2.14,2.14,0,1,0-4.28,0,2.14,2.14,0,1,0,4.28,0m-3.05,1.43c-.06,0-.1,0-.1-.09V4.79c0-.06,0-.09.1-.09h1.09c.62,0,1,.31,1,.85a.82.82,0,0,1-.57.81l.58,1.13a.06.06,0,0,1-.05.09h-.39a.14.14,0,0,1-.12-.09l-.54-1.06h-.52s-.05,0-.05.05v1a.09.09,0,0,1-.1.09Zm1.56-2c0-.25-.15-.39-.47-.39h-.62s-.05,0-.05,0v.7s0,0,.05,0h.62c.32,0,.47-.15.47-.41"/></g></g></svg>